<?xml version="1.0" encoding="utf-8"?>
<!-- Generator: Adobe Illustrator 28.0.0, SVG Export Plug-In . SVG Version: 6.00 Build 0)  -->
<svg version="1.0" id="katman_1" xmlns="http://www.w3.org/2000/svg" xmlns:xlink="http://www.w3.org/1999/xlink" x="0px" y="0px"
	 viewBox="0 0 841.89 595.28" style="enable-background:new 0 0 841.89 595.28;" xml:space="preserve">
<style type="text/css">
	.st0{fill:#FFFFFF;}
</style>
<rect x="75.33" y="176.4" width="237.2" height="237.2"/>
<polygon class="st0" points="227.66,226.45 131.49,363.79 160.45,363.79 256.61,226.45 "/>
<g>
	<path d="M478.61,360.72c-8.78,2.74-16.91,4.11-24.38,4.11c-14.08,0-26.47-2.9-37.18-8.69c-10.71-5.79-18.96-13.73-24.75-23.82
		c-5.79-10.09-8.69-21.42-8.69-34c0-14.69,3.11-27.43,9.34-38.21c6.23-10.77,14.64-19.03,25.22-24.75s22.17-8.59,34.75-8.59
		c7.6,0,14.76,0.91,21.49,2.71c6.72,1.81,12.77,4.2,18.12,7.19l-5.98,16.63c-3.99-2.24-9-4.2-15.04-5.88
		c-6.04-1.68-11.49-2.52-16.35-2.52c-10.46,0-19.71,2.12-27.75,6.35c-8.03,4.24-14.23,10.28-18.59,18.12
		c-4.36,7.85-6.54,17-6.54,27.47c0,9.72,2.18,18.37,6.54,25.97c4.36,7.6,10.52,13.48,18.5,17.65c7.97,4.17,17.06,6.26,27.28,6.26
		c4.73,0,9.34-0.47,13.83-1.4c4.48-0.93,8.22-2.27,11.21-4.02v-26.72h-26.9V297.2h45.21v54.56
		C493.83,354.99,487.39,357.98,478.61,360.72L478.61,360.72z"/>
	<path d="M553.53,293.09c3.67-3.24,7.57-5.73,11.68-7.47c4.11-1.74,7.72-2.68,10.84-2.8l-0.75,17.38
		c-5.61-0.25-10.68,0.87-15.23,3.36c-4.55,2.49-8.1,5.95-10.65,10.37c-2.55,4.42-3.83,9.13-3.83,14.11v35.31h-17.38v-77.35h15.51
		l1.31,18.31C547.02,300.06,549.85,296.33,553.53,293.09L553.53,293.09z"/>
	<path d="M593.88,303.08c3.67-6.29,8.78-11.24,15.32-14.85c6.54-3.61,13.92-5.42,22.14-5.42s15.54,1.81,21.95,5.42
		c6.41,3.61,11.4,8.53,14.95,14.76s5.33,13.2,5.33,20.93s-1.77,14.73-5.33,21.02c-3.55,6.29-8.57,11.24-15.04,14.85
		c-6.48,3.61-13.89,5.42-22.23,5.42c-8.34,0-15.38-1.71-21.86-5.14c-6.48-3.43-11.55-8.25-15.23-14.48
		c-3.67-6.23-5.51-13.45-5.51-21.67C588.37,316.32,590.21,309.38,593.88,303.08L593.88,303.08z M609.21,337.55
		c2.18,4.11,5.17,7.35,8.97,9.72c3.8,2.37,8,3.55,12.61,3.55c7.22,0,13.2-2.55,17.94-7.66c4.73-5.1,7.1-11.46,7.1-19.06
		c0-7.6-2.37-13.98-7.1-19.15c-4.73-5.17-10.71-7.75-17.94-7.75c-4.73,0-8.97,1.21-12.7,3.64c-3.74,2.43-6.7,5.7-8.87,9.81
		c-2.18,4.11-3.27,8.59-3.27,13.45C605.94,328.96,607.03,333.44,609.21,337.55L609.21,337.55z"/>
	<polygon points="736.35,316.44 764.93,293.46 754.28,284.12 714.3,316.26 714.3,226.76 696.92,226.76 696.92,363.34 714.3,363.34 
		714.3,334.38 724.39,326.16 748.3,363.34 768.67,363.34 	"/>
</g>
</svg>
